<svg xmlns="http://www.w3.org/2000/svg" xmlns:svgjs="http://svgjs.com/svgjs" xmlns:xlink="http://www.w3.org/1999/xlink" style="enable-background:new 0 0 512 512" width="512" height="512" x="0" y="0" version="1.1" viewBox="0 0 24 24" xml:space="preserve"><g><path xmlns="http://www.w3.org/2000/svg" fill="#fff" d="m17.5 11c-3.584 0-6.5 2.916-6.5 6.5s2.916 6.5 6.5 6.5 6.5-2.916 6.5-6.5-2.916-6.5-6.5-6.5zm2.5 7.5h-5c-.552 0-1-.448-1-1s.448-1 1-1h5c.552 0 1 .448 1 1s-.448 1-1 1z" data-original="#000000"/><path xmlns="http://www.w3.org/2000/svg" fill="#fff" d="m17.04 2.01-.08-.4c-.18-.93-1.01-1.61-1.96-1.61h-10c-.95 0-1.78.68-1.96 1.59l-3.01 14.08c-.02.11-.03.22-.03.33 0 1.1.9 2 2 2h7.01c-.01-.17-.01-.33-.01-.5 0-.51.04-1.01.13-1.49h-7.13l3-14.01 10 .01 1.51 7.05c.33-.04.66-.06.99-.06.36 0 .71.02 1.06.07z" data-original="#000000"/><path xmlns="http://www.w3.org/2000/svg" fill="#fff" d="m22.97 11c-.69-.59-1.48-1.06-2.34-1.4l-1.63-7.59h-1.96l-3.04-.01c-.55 0-1-.45-1-1s.45-1 1-1h5c.95 0 1.78.68 1.96 1.61z" data-original="#000000"/><path xmlns="http://www.w3.org/2000/svg" fill="#fff" d="m10 11c-2.206 0-4-1.794-4-4v-2c0-.552.448-1 1-1s1 .448 1 1v2c0 1.103.897 2 2 2s2-.897 2-2v-2c0-.552.448-1 1-1s1 .448 1 1v2c0 2.206-1.794 4-4 4z" data-original="#000000"/></g></svg>