<svg xmlns="http://www.w3.org/2000/svg" viewBox="0 0 385.91 210.1"><defs><style>.cls-1{isolation:isolate}.cls-2{fill:#7cb342}.cls-3{fill:#263238}.cls-4{fill:#607d8b}.cls-5{fill:#e0e0e0}.cls-6{fill:#fafafa}.cls-7{fill:#ffcc80}.cls-8{fill:#9ccc65}.cls-17,.cls-21,.cls-8{mix-blend-mode:multiply}.cls-9{fill:#fdd835}.cls-10{fill:#f9a825}.cls-11{fill:#455a64}.cls-12{fill:#ef6c00}.cls-13{fill:#bdbdbd}.cls-14,.cls-21{fill:#29b6f6}.cls-15{fill:#039be5}.cls-16{fill:#fbc02d}.cls-17{fill:#d7ccc8}.cls-18{fill:#e53935}.cls-19{fill:#b71c1c}.cls-20{fill:#f57f17}.cls-21{opacity:.5}.cls-22{fill:#37474f}.cls-23{fill:#eee}.cls-24,.cls-27{font-size:19.82px;font-family:VeganStylePersonalUse,Vegan Style Personal Use;letter-spacing:.05em}.cls-24{fill:#fff}.cls-25{letter-spacing:1.65em}.cls-26{letter-spacing:.05em}.cls-27{fill:#545454}</style></defs><title>17219</title><g class="cls-1"><g id="Layer_1" data-name="Layer 1"><g><g><path d="M397,281.62H64.86A19.52,19.52,0,0,1,45.34,262.1h0a19.52,19.52,0,0,1,19.52-19.52H397a19.52,19.52,0,0,1,19.52,19.52h0A19.52,19.52,0,0,1,397,281.62Z" class="cls-2" transform="translate(-37.97 -102.83)"/><rect width="385.91" height="42.29" y="167.8" class="cls-3" rx="21.14"/><rect width="385.91" height="42.29" y="164" class="cls-4" rx="21.14"/><path d="M60.91,291.05a14,14,0,1,1,0-28H401a14,14,0,0,1,0,28Z" class="cls-5" transform="translate(-37.97 -102.83)"/><path d="M60.91,287.24a14,14,0,1,1,0-28H401a14,14,0,1,1,0,28Z" class="cls-6" transform="translate(-37.97 -102.83)"/><path d="M401,283.44h-340a10.21,10.21,0,0,1-10.2-10.21h0A10.2,10.2,0,0,1,60.91,263H401a10.2,10.2,0,0,1,10.2,10.2h0A10.21,10.21,0,0,1,401,283.44Z" class="cls-7" transform="translate(-37.97 -102.83)"/><path d="M91.47,253.52a17.31,17.31,0,1,0-31.17,0Z" class="cls-2" transform="translate(-37.97 -102.83)"/><path d="M122.14,253.52a22.67,22.67,0,1,0-40.83,0Z" class="cls-2" transform="translate(-37.97 -102.83)"/><path d="M370.39,253.52a17.31,17.31,0,1,1,31.17,0Z" class="cls-2" transform="translate(-37.97 -102.83)"/><g><circle cx="17.31" cy="147.11" r="1.44" class="cls-8"/><circle cx="19.38" cy="148.59" r="2.09" class="cls-8"/><path d="M71.29,244.22a3.09,3.09,0,1,1-3.09-3.09A3.09,3.09,0,0,1,71.29,244.22Z" class="cls-8" transform="translate(-37.97 -102.83)"/><path d="M63.55,245a1.26,1.26,0,1,1-1.26-1.26A1.26,1.26,0,0,1,63.55,245Z" class="cls-8" transform="translate(-37.97 -102.83)"/><path d="M72.41,237a1.64,1.64,0,1,1-1.63-1.63A1.63,1.63,0,0,1,72.41,237Z" class="cls-8" transform="translate(-37.97 -102.83)"/><circle cx="14.91" cy="154.02" r=".96" class="cls-8"/><path d="M87.52,244.75a5.82,5.82,0,1,1-5.82-5.82A5.82,5.82,0,0,1,87.52,244.75Z" class="cls-8" transform="translate(-37.97 -102.83)"/><path d="M74.56,251.73a1.17,1.17,0,1,1-1.17-1.17A1.17,1.17,0,0,1,74.56,251.73Z" class="cls-8" transform="translate(-37.97 -102.83)"/><path d="M85.1,235.59a1.7,1.7,0,1,1-1.7-1.7A1.7,1.7,0,0,1,85.1,235.59Z" class="cls-8" transform="translate(-37.97 -102.83)"/><path d="M65.11,253.55a.65.65,0,1,1-.65-.65A.66.66,0,0,1,65.11,253.55Z" class="cls-8" transform="translate(-37.97 -102.83)"/></g><g><circle cx="368.61" cy="147.11" r="1.44" class="cls-8"/><circle cx="366.53" cy="148.59" r="2.09" class="cls-8"/><path d="M390.57,244.22a3.1,3.1,0,1,0,3.09-3.09A3.09,3.09,0,0,0,390.57,244.22Z" class="cls-8" transform="translate(-37.97 -102.83)"/><path d="M398.31,245a1.26,1.26,0,1,0,1.26-1.26A1.27,1.27,0,0,0,398.31,245Z" class="cls-8" transform="translate(-37.97 -102.83)"/><path d="M389.45,237a1.64,1.64,0,1,0,1.63-1.63A1.63,1.63,0,0,0,389.45,237Z" class="cls-8" transform="translate(-37.97 -102.83)"/><circle cx="371" cy="154.02" r=".96" class="cls-8"/><path d="M374.34,244.75a5.82,5.82,0,1,0,5.82-5.82A5.82,5.82,0,0,0,374.34,244.75Z" class="cls-8" transform="translate(-37.97 -102.83)"/><path d="M387.3,251.73a1.17,1.17,0,1,0,1.17-1.17A1.17,1.17,0,0,0,387.3,251.73Z" class="cls-8" transform="translate(-37.97 -102.83)"/><path d="M376.77,235.59a1.7,1.7,0,1,0,1.69-1.7A1.7,1.7,0,0,0,376.77,235.59Z" class="cls-8" transform="translate(-37.97 -102.83)"/><path d="M396.76,253.55a.65.65,0,1,0,.65-.65A.65.65,0,0,0,396.76,253.55Z" class="cls-8" transform="translate(-37.97 -102.83)"/></g><path d="M339.72,263a22.67,22.67,0,1,1,40.83,0Z" class="cls-2" transform="translate(-37.97 -102.83)"/><rect width="244.85" height="4.92" x="21.48" y="191.7" class="cls-9" rx="1.29"/><rect width="46.75" height="4.92" x="321.88" y="191.7" class="cls-9" rx="1.29"/></g><g><rect width="79.06" height="118.3" x="262.08" y="46.23" class="cls-10"/><rect width="290.39" height="5.22" x="55.81" y="46.23" class="cls-11"/><rect width="62.08" height="98.68" x="261.76" y="65.85" class="cls-12"/><polygon points="55.81 29.52 55.81 76.9 59.21 76.9 59.21 133.96 55.81 133.96 55.81 164.53 262.99 164.53 262.99 29.52 55.81 29.52" class="cls-9"/><rect width="213.85" height="21.14" x="52.48" y="143.39" class="cls-11"/><polygon points="271.37 11.32 47.43 11.32 52.48 32.45 266.33 32.45 271.37 11.32" class="cls-11"/><rect width="213.85" height="4.78" x="52.48" y="136.1" class="cls-11"/><rect width="22.38" height="21.14" x="321.53" y="143.39" class="cls-11"/><rect width="22.38" height="4.78" x="321.53" y="136.1" class="cls-11"/><g><path d="M292.75,102.83h0a2.93,2.93,0,0,1,2.92,2.93v8.39h-5.85v-8.39A2.93,2.93,0,0,1,292.75,102.83Z" class="cls-3" transform="translate(-37.97 -102.83)"/><rect width="43.04" height="8.91" x="212.59" y="2.41" class="cls-5"/><rect width="1.48" height="3.54" x="214.07" y="3.8" class="cls-3"/><rect width="1.48" height="3.54" x="216.69" y="3.8" class="cls-3"/><rect width="1.48" height="3.54" x="219.3" y="3.8" class="cls-3"/><rect width="32.78" height="1.75" x="217.72" y=".66" class="cls-13"/><path d="M283.33,102.83h0a1.12,1.12,0,0,1,1.11,1.12v10.2h-2.22V104A1.12,1.12,0,0,1,283.33,102.83Z" class="cls-3" transform="translate(-37.97 -102.83)"/><path d="M277.69,102.83h0A1.12,1.12,0,0,1,278.8,104v10.2h-2.22V104A1.12,1.12,0,0,1,277.69,102.83Z" class="cls-3" transform="translate(-37.97 -102.83)"/></g><g><path d="M239.56,102.83h0a2.93,2.93,0,0,1,2.92,2.93v8.39h-5.84v-8.39A2.92,2.92,0,0,1,239.56,102.83Z" class="cls-3" transform="translate(-37.97 -102.83)"/><rect width="43.04" height="8.91" x="159.4" y="2.41" class="cls-5"/><rect width="1.48" height="3.54" x="160.88" y="3.8" class="cls-3"/><rect width="1.48" height="3.54" x="163.5" y="3.8" class="cls-3"/><rect width="1.48" height="3.54" x="166.11" y="3.8" class="cls-3"/><rect width="32.78" height="1.75" x="164.53" y=".66" class="cls-13"/><path d="M230.14,102.83h0a1.11,1.11,0,0,1,1.11,1.12v10.2H229V104A1.12,1.12,0,0,1,230.14,102.83Z" class="cls-3" transform="translate(-37.97 -102.83)"/><path d="M224.5,102.83h0a1.11,1.11,0,0,1,1.11,1.12v10.2h-2.22V104A1.12,1.12,0,0,1,224.5,102.83Z" class="cls-3" transform="translate(-37.97 -102.83)"/></g><g><rect width="114.47" height="53.83" x="59.21" y="80.13" class="cls-6"/><rect width="19.55" height="31.7" x="59.22" y="83.04" class="cls-14"/><rect width="19.55" height="12.82" x="59.22" y="118.25" class="cls-14"/><rect width="16.26" height="31.7" x="78.28" y="83.04" class="cls-14"/><rect width="16.27" height="12.82" x="78.27" y="118.24" class="cls-14"/><rect width="20.37" height="31.7" x="97.52" y="83.04" class="cls-14"/><rect width="20.37" height="12.82" x="97.52" y="118.25" class="cls-14"/><rect width="16.28" height="31.7" x="116.58" y="83.04" class="cls-14"/><rect width="16.27" height="12.82" x="116.59" y="118.24" class="cls-14"/><rect width="21.89" height="31.7" x="135.85" y="83.04" class="cls-14"/><rect width="22.19" height="12.82" x="135.85" y="118.25" class="cls-14"/><rect width="16.27" height="31.7" x="154.9" y="83.04" class="cls-14"/><rect width="16.27" height="12.82" x="154.9" y="118.24" class="cls-14"/><g><rect width="35.32" height="3.33" x="59.22" y="87.36" class="cls-15"/><rect width="35.34" height="3.33" x="97.52" y="87.36" class="cls-15"/><rect width="35.32" height="3.33" x="135.85" y="87.36" class="cls-15"/><rect width="35.32" height="3.33" x="59.22" y="92.31" class="cls-15"/><rect width="35.34" height="3.33" x="97.52" y="92.31" class="cls-15"/><rect width="35.32" height="3.33" x="135.85" y="92.31" class="cls-15"/><rect width="35.32" height="3.35" x="59.22" y="97.23" class="cls-15"/><rect width="35.34" height="3.35" x="97.52" y="97.23" class="cls-15"/><rect width="35.32" height="3.35" x="135.85" y="97.23" class="cls-15"/><rect width="20.53" height="3.53" x="66.86" y="127.53" class="cls-15"/><rect width="27.01" height="2.24" x="63.62" y="125.49" class="cls-15"/><path d="M125.08,223.21c0,2.36-1.31,4.28-2.93,4.28s-2.94-1.92-2.94-4.28Z" class="cls-15" transform="translate(-37.97 -102.83)"/><path d="M123.5,228.33a1.35,1.35,0,0,0-2.7,0Z" class="cls-15" transform="translate(-37.97 -102.83)"/><path d="M124.49,226.83a1.43,1.43,0,0,1-.46-.07.48.48,0,0,1-.31-.6.47.47,0,0,1,.59-.3,1,1,0,0,0,.91-.31,1.18,1.18,0,0,0,.45-1,.33.33,0,0,0-.18-.2.47.47,0,0,1-.64.19.45.45,0,0,1-.17-.63.92.92,0,0,1,.95-.5,1.25,1.25,0,0,1,1,.92,2.09,2.09,0,0,1-.73,1.89A2.05,2.05,0,0,1,124.49,226.83Z" class="cls-15" transform="translate(-37.97 -102.83)"/><polygon points="80.51 124.99 71.67 124.99 72.14 125.59 80.04 125.59 80.51 124.99" class="cls-15"/><polygon points="82 124.39 70.18 124.39 71.66 124.99 80.51 124.99 82 124.39" class="cls-15"/><path d="M104.89,228.33H103.8a4.38,4.38,0,0,1-1.65-3c0-1.4,1.58-1.81,1.58-2.76a1,1,0,0,0-.77-1.07h1.93Z" class="cls-15" transform="translate(-37.97 -102.83)"/><path d="M104.89,228.33H106a4.42,4.42,0,0,0,1.64-3c0-1.4-1.57-1.81-1.57-2.76a1,1,0,0,1,.77-1.07h-1.93Z" class="cls-15" transform="translate(-37.97 -102.83)"/><g><path d="M104.94,221.08h.49c0,.15-.06.31-.09.44s-.08.4-.1.57l-.36-.06-.12,0c0-.15.06-.32.1-.49A4.14,4.14,0,0,1,104.94,221.08Z" class="cls-15" transform="translate(-37.97 -102.83)"/><path d="M109.46,212.77a.71.71,0,0,1-.15.15c-.13.16-.27.31-.4.48a15,15,0,0,0-2.32,4c0,.08-.06.14-.09.21H106c.12-.3.25-.62.4-1s.44-.91.69-1.37a13.38,13.38,0,0,1,1.46-2.18,3.9,3.9,0,0,1,.42-.48,1.14,1.14,0,0,1,.15-.17Z" class="cls-15" transform="translate(-37.97 -102.83)"/></g><g><path d="M104.21,221.52c.06.17.1.32.14.46l-.1,0-.36.12c-.06-.17-.11-.38-.17-.61a4.5,4.5,0,0,0-.1-.44h.5A4.31,4.31,0,0,1,104.21,221.52Z" class="cls-15" transform="translate(-37.97 -102.83)"/><path d="M105.58,212.77a.3.3,0,0,0-.07.1h0l-.36.41s0,.06,0,.08a1.56,1.56,0,0,0-.14.19v0a4.23,4.23,0,0,0-.24.4,7.08,7.08,0,0,0-.72,2.15,9.31,9.31,0,0,0-.16,1.46h-.47a9.52,9.52,0,0,1,.15-1.48.93.93,0,0,0,0-.23s0,0,0,0a8.88,8.88,0,0,1,.66-1.94,7.13,7.13,0,0,1,.52-.85l0,0a.74.74,0,0,1,.15-.19,3.62,3.62,0,0,1,.36-.42l.06.06,0,0,0,0,.06.06,0,0,.06.07Z" class="cls-15" transform="translate(-37.97 -102.83)"/></g><g><path d="M104.63,221.52a2.85,2.85,0,0,0,.1.46l-.46.15a.25.25,0,0,1,0-.12,1.94,1.94,0,0,1-.11-.49,3.1,3.1,0,0,1,0-.44h.49A3.1,3.1,0,0,0,104.63,221.52Z" class="cls-15" transform="translate(-37.97 -102.83)"/><path d="M107.85,211.82a3.34,3.34,0,0,0-.35.4,0,0,0,0,0,0,0l-.17.21c-.09.11-.19.23-.28.36v0a0,0,0,0,1,0,0,3.76,3.76,0,0,0-.32.55s0,0,0,0c-.12.19-.23.4-.33.59s-.07.17-.11.25a.7.7,0,0,0-.06.09,16.24,16.24,0,0,0-1.12,3.25h-.51c0-.11,0-.24.07-.36s.1-.34.15-.51c.18-.59.39-1.18.61-1.77.1-.21.19-.44.29-.65s.25-.49.38-.72a.07.07,0,0,1,0-.06s.06-.13.11-.19,0,0,0,0a.44.44,0,0,1,.1-.17s0,0,0,0a2.32,2.32,0,0,1,.19-.31s0,0,0-.06a.85.85,0,0,1,.14-.19.91.91,0,0,0,.09-.17l.06,0a.5.5,0,0,1,.07-.08.17.17,0,0,1,.06-.1l.17-.2c.1-.14.21-.25.31-.37s0-.05.07-.07Z" class="cls-15" transform="translate(-37.97 -102.83)"/></g><path d="M108.63,215.76a6.83,6.83,0,0,1-1.11,1.82h-1.06l.13-.21A4.39,4.39,0,0,1,108.63,215.76Z" class="cls-15" transform="translate(-37.97 -102.83)"/><path d="M107.14,213.49a4,4,0,0,1-.89,3.36C105.34,215.73,106.73,214.68,107.14,213.49Z" class="cls-15" transform="translate(-37.97 -102.83)"/><path d="M105,214.27c.53.29.59,1.86-.12,2.58C103.86,215.62,104.77,215,105,214.27Z" class="cls-15" transform="translate(-37.97 -102.83)"/><path d="M101.59,214.68c.8-.53.52.39.84.88a1.37,1.37,0,0,0,1.09.55C103.82,214.62,102.51,213.43,101.59,214.68Z" class="cls-15" transform="translate(-37.97 -102.83)"/><path d="M104.78,217.58h-1.19c.13-1,.3-1.39.4-1.46a.11.11,0,0,1,.13,0l.49,1.12Z" class="cls-15" transform="translate(-37.97 -102.83)"/><path d="M110.18,212.6a.9.9,0,1,1-.9-.89A.89.89,0,0,1,110.18,212.6Z" class="cls-15" transform="translate(-37.97 -102.83)"/><path d="M108.56,211.65a.89.89,0,1,1-.89-.89A.89.89,0,0,1,108.56,211.65Z" class="cls-15" transform="translate(-37.97 -102.83)"/><path d="M106.66,212.42a1.07,1.07,0,1,1-1.07-1.07A1.07,1.07,0,0,1,106.66,212.42Z" class="cls-15" transform="translate(-37.97 -102.83)"/><path d="M109.81,213.32c.3,0,.59-.44.75.17.1-1,0-.91-.38-.89.48-.14,0-1-.36-.68.19-.44-.69-.69-.71-.35,0-.34-.65-.26-.72-.08.32,0,.41.25.24.51S109.81,213.32,109.81,213.32Z" class="cls-15" transform="translate(-37.97 -102.83)"/><path d="M107.3,210.84c-.25-.55-.63.07-.88,0,.14.23-.13.86.36.81S107.3,210.84,107.3,210.84Z" class="cls-15" transform="translate(-37.97 -102.83)"/><path d="M108.23,211c.38-.47-.34-.54-.39-.79-.14.23-.82.27-.57.68S108.23,211,108.23,211Z" class="cls-15" transform="translate(-37.97 -102.83)"/><path d="M108.54,211.84c.59.14.33-.54.53-.7-.26,0-.61-.62-.86-.2S108.54,211.84,108.54,211.84Z" class="cls-15" transform="translate(-37.97 -102.83)"/><path d="M107.89,212.51c.14.6.63.05.86.17-.1-.25.28-.82-.2-.86S107.89,212.51,107.89,212.51Z" class="cls-15" transform="translate(-37.97 -102.83)"/><path d="M107,212.23c-.46.39.24.59.24.84.18-.19.86-.11.68-.56S107,212.23,107,212.23Z" class="cls-15" transform="translate(-37.97 -102.83)"/><path d="M106.85,211.3c-.56-.24-.42.48-.65.59.26.08.48.72.81.36S106.85,211.3,106.85,211.3Z" class="cls-15" transform="translate(-37.97 -102.83)"/><path d="M103.56,212.31c0,.63,1.85,0,1.85,0S103.52,211.43,103.56,212.31Z" class="cls-15" transform="translate(-37.97 -102.83)"/><path d="M103.81,211.45c-.25.58,1.67.79,1.67.79S104.15,210.64,103.81,211.45Z" class="cls-15" transform="translate(-37.97 -102.83)"/><path d="M104.4,210.78c-.47.42,1.17,1.43,1.17,1.43S105.05,210.19,104.4,210.78Z" class="cls-15" transform="translate(-37.97 -102.83)"/><path d="M105.21,210.42c-.6.18.45,1.8.45,1.8S106.05,210.17,105.21,210.42Z" class="cls-15" transform="translate(-37.97 -102.83)"/><path d="M106.11,210.45c-.63-.09-.37,1.82-.37,1.82S107,210.59,106.11,210.45Z" class="cls-15" transform="translate(-37.97 -102.83)"/><path d="M106.9,210.86c-.53-.35-1.1,1.49-1.1,1.49S107.62,211.35,106.9,210.86Z" class="cls-15" transform="translate(-37.97 -102.83)"/><path d="M107.44,211.57c-.32-.54-1.63.87-1.63.87S107.89,212.32,107.44,211.57Z" class="cls-15" transform="translate(-37.97 -102.83)"/><path d="M107.63,212.44c-.06-.63-1.85.09-1.85.09S107.71,213.31,107.63,212.44Z" class="cls-15" transform="translate(-37.97 -102.83)"/><path d="M107.42,213.31c.22-.59-1.71-.71-1.71-.71S107.12,214.13,107.42,213.31Z" class="cls-15" transform="translate(-37.97 -102.83)"/><path d="M106.87,214c.45-.45-1.24-1.37-1.24-1.37S106.25,214.62,106.87,214Z" class="cls-15" transform="translate(-37.97 -102.83)"/><path d="M106.07,214.4c.59-.21-.54-1.77-.54-1.77S105.24,214.69,106.07,214.4Z" class="cls-15" transform="translate(-37.97 -102.83)"/><path d="M105.18,214.41c.63.07.27-1.83.27-1.83S104.31,214.32,105.18,214.41Z" class="cls-15" transform="translate(-37.97 -102.83)"/><path d="M104.36,214c.55.33,1-1.53,1-1.53S103.62,213.59,104.36,214Z" class="cls-15" transform="translate(-37.97 -102.83)"/><path d="M103.79,213.36c.35.53,1.59-1,1.59-1S103.31,212.63,103.79,213.36Z" class="cls-15" transform="translate(-37.97 -102.83)"/><path d="M103.56,212.5c.09.63,1.84-.18,1.84-.18S103.44,211.63,103.56,212.5Z" class="cls-15" transform="translate(-37.97 -102.83)"/><rect width="1.18" height="4.35" x="77.39" y="99.98" class="cls-15"/><polygon points="84.7 106.02 71.26 106.02 75.73 103.16 80.23 103.16 84.7 106.02" class="cls-15"/><path d="M117.56,206a1.61,1.61,0,1,1-1.6-1.61A1.61,1.61,0,0,1,117.56,206Z" class="cls-15" transform="translate(-37.97 -102.83)"/><rect width="20.53" height="3.53" x="104.93" y="127.53" class="cls-15"/><rect width="27.01" height="2.24" x="101.69" y="125.49" class="cls-15"/><path d="M163.16,223.21c0,2.36-1.32,4.28-2.94,4.28s-2.94-1.92-2.94-4.28Z" class="cls-15" transform="translate(-37.97 -102.83)"/><path d="M161.57,228.33a1.35,1.35,0,0,0-2.7,0Z" class="cls-15" transform="translate(-37.97 -102.83)"/><path d="M162.57,226.83a1.49,1.49,0,0,1-.47-.07.48.48,0,0,1-.31-.6.47.47,0,0,1,.59-.3,1,1,0,0,0,.92-.31,1.2,1.2,0,0,0,.44-1,.33.33,0,0,0-.18-.2.47.47,0,0,1-.64.19.44.44,0,0,1-.16-.63.91.91,0,0,1,.94-.5,1.25,1.25,0,0,1,1,.92,2.06,2.06,0,0,1-.73,1.89A2,2,0,0,1,162.57,226.83Z" class="cls-15" transform="translate(-37.97 -102.83)"/><polygon points="118.58 124.99 109.74 124.99 110.21 125.59 118.11 125.59 118.58 124.99" class="cls-15"/><polygon points="120.07 124.39 108.25 124.39 109.73 124.99 118.58 124.99 120.07 124.39" class="cls-15"/><path d="M143,228.33h-1.09a4.38,4.38,0,0,1-1.65-3c0-1.4,1.58-1.81,1.58-2.76a1,1,0,0,0-.77-1.07H143Z" class="cls-15" transform="translate(-37.97 -102.83)"/><path d="M143,228.33h1.09a4.38,4.38,0,0,0,1.64-3c0-1.4-1.57-1.81-1.57-2.76a1,1,0,0,1,.77-1.07H143Z" class="cls-15" transform="translate(-37.97 -102.83)"/><g><path d="M143,221.08h.5c0,.15-.06.31-.1.44a4.73,4.73,0,0,0-.09.57L143,222l-.11,0c0-.15.06-.32.1-.49A2.5,2.5,0,0,1,143,221.08Z" class="cls-15" transform="translate(-37.97 -102.83)"/><path d="M147.52,212.77c0,.06-.1.1-.13.15a4.65,4.65,0,0,0-.42.48,15.46,15.46,0,0,0-2.3,4c0,.08-.06.14-.1.21h-.51c.11-.28.24-.59.38-.87.19-.48.44-1,.68-1.43a14.65,14.65,0,0,1,1.5-2.22c.14-.17.27-.33.42-.48s.1-.09.14-.15Z" class="cls-15" transform="translate(-37.97 -102.83)"/></g><g><path d="M142.27,221.52c.06.17.09.32.13.46l-.09,0-.34.12c-.06-.17-.12-.38-.18-.61a2.65,2.65,0,0,0-.09-.44h.47a.07.07,0,0,1,0,.06C142.21,221.27,142.25,221.41,142.27,221.52Z" class="cls-15" transform="translate(-37.97 -102.83)"/><path d="M143.66,212.77a.35.35,0,0,0-.08.1h0l-.36.41s0,.06,0,.08-.09.15-.15.23,0,0,0,0l-.19.32a7.73,7.73,0,0,0-.74,2.17,11.64,11.64,0,0,0-.15,1.46h-.48a10.6,10.6,0,0,1,.15-1.48,7.7,7.7,0,0,1,.71-2.19v0a8.31,8.31,0,0,1,.44-.76l.07-.07s0,0,0,0a.87.87,0,0,1,.12-.14,2.5,2.5,0,0,1,.4-.47l.05.06,0,0h0l0,0v0l.06,0,0,0v0l.06,0Z" class="cls-15" transform="translate(-37.97 -102.83)"/></g><g><path d="M142.71,221.52a2.88,2.88,0,0,0,.09.46l-.45.15s0-.08,0-.12-.06-.3-.1-.49,0-.25,0-.38,0,0,0-.06h.5A3.1,3.1,0,0,0,142.71,221.52Z" class="cls-15" transform="translate(-37.97 -102.83)"/><path d="M145.92,211.82a3.26,3.26,0,0,0-.34.4,0,0,0,0,0,0,0,1.93,1.93,0,0,0-.17.21c-.1.11-.19.23-.29.36v0a0,0,0,0,1,0,0l-.34.55c-.11.19-.23.4-.32.59s-.1.21-.15.3a15.47,15.47,0,0,0-1.14,3.29h-.54c0-.11.06-.24.1-.36v0c.06-.17.09-.32.15-.49a14,14,0,0,1,.61-1.75l.28-.69c.12-.24.25-.47.38-.7,0,0,0,0,0,0a.5.5,0,0,1,.12-.21.66.66,0,0,1,.09-.19.07.07,0,0,1,0,0,2.59,2.59,0,0,1,.19-.31s0,0,0-.06a1.62,1.62,0,0,1,.13-.19c0-.05.08-.11.1-.17s0,0,0-.07l.08-.06a.17.17,0,0,1,.06-.1,1.12,1.12,0,0,1,.17-.2,1.72,1.72,0,0,1,.3-.35s0,0,.08-.09Z" class="cls-15" transform="translate(-37.97 -102.83)"/></g><path d="M146.7,215.76a6.8,6.8,0,0,1-1.1,1.82h-1.07a1,1,0,0,1,.14-.21A4.23,4.23,0,0,1,146.7,215.76Z" class="cls-15" transform="translate(-37.97 -102.83)"/><path d="M145.22,213.49a4,4,0,0,1-.9,3.36C143.41,215.73,144.8,214.68,145.22,213.49Z" class="cls-15" transform="translate(-37.97 -102.83)"/><path d="M143.08,214.27c.53.29.59,1.86-.12,2.58C141.93,215.62,142.84,215,143.08,214.27Z" class="cls-15" transform="translate(-37.97 -102.83)"/><path d="M139.66,214.68c.8-.53.52.39.84.88a1.37,1.37,0,0,0,1.09.55C141.89,214.62,140.59,213.43,139.66,214.68Z" class="cls-15" transform="translate(-37.97 -102.83)"/><path d="M142.86,217.58h-1.2c.13-1,.31-1.39.4-1.46s.13,0,.13,0l.5,1.1v0Z" class="cls-15" transform="translate(-37.97 -102.83)"/><path d="M148.25,212.6a.9.9,0,1,1-.89-.89A.89.89,0,0,1,148.25,212.6Z" class="cls-15" transform="translate(-37.97 -102.83)"/><path d="M146.63,211.65a.89.89,0,1,1-.89-.89A.89.89,0,0,1,146.63,211.65Z" class="cls-15" transform="translate(-37.97 -102.83)"/><path d="M144.74,212.42a1.08,1.08,0,1,1-1.08-1.07A1.07,1.07,0,0,1,144.74,212.42Z" class="cls-15" transform="translate(-37.97 -102.83)"/><path d="M147.88,213.32c.3,0,.59-.44.75.17.1-1,0-.91-.38-.89.48-.14,0-1-.36-.68.19-.44-.69-.69-.71-.35,0-.34-.65-.26-.72-.08.32,0,.41.25.24.51S147.88,213.32,147.88,213.32Z" class="cls-15" transform="translate(-37.97 -102.83)"/><path d="M145.37,210.84c-.25-.55-.63.07-.88,0,.14.23-.12.86.36.81S145.37,210.84,145.37,210.84Z" class="cls-15" transform="translate(-37.97 -102.83)"/><path d="M146.3,211c.39-.47-.34-.54-.39-.79-.14.23-.82.27-.56.68S146.3,211,146.3,211Z" class="cls-15" transform="translate(-37.97 -102.83)"/><path d="M146.61,211.84c.6.14.33-.54.53-.7-.26,0-.6-.62-.86-.2S146.61,211.84,146.61,211.84Z" class="cls-15" transform="translate(-37.97 -102.83)"/><path d="M146,212.51c.14.6.64.05.86.17-.1-.25.29-.82-.2-.86S146,212.51,146,212.51Z" class="cls-15" transform="translate(-37.97 -102.83)"/><path d="M145.07,212.23c-.47.39.24.59.24.84.17-.19.85-.11.68-.56S145.07,212.23,145.07,212.23Z" class="cls-15" transform="translate(-37.97 -102.83)"/><path d="M144.92,211.3c-.55-.24-.42.48-.65.59.26.08.49.72.81.36S144.92,211.3,144.92,211.3Z" class="cls-15" transform="translate(-37.97 -102.83)"/><path d="M141.63,212.31c0,.63,1.86,0,1.86,0S141.6,211.43,141.63,212.31Z" class="cls-15" transform="translate(-37.97 -102.83)"/><path d="M141.88,211.45c-.25.58,1.67.79,1.67.79S142.22,210.64,141.88,211.45Z" class="cls-15" transform="translate(-37.97 -102.83)"/><path d="M142.47,210.78c-.47.42,1.17,1.43,1.17,1.43S143.12,210.19,142.47,210.78Z" class="cls-15" transform="translate(-37.97 -102.83)"/><path d="M143.29,210.42c-.61.18.45,1.8.45,1.8S144.13,210.17,143.29,210.42Z" class="cls-15" transform="translate(-37.97 -102.83)"/><path d="M144.18,210.45c-.63-.09-.36,1.82-.36,1.82S145,210.59,144.18,210.45Z" class="cls-15" transform="translate(-37.97 -102.83)"/><path d="M145,210.86c-.52-.35-1.1,1.49-1.1,1.49S145.7,211.35,145,210.86Z" class="cls-15" transform="translate(-37.97 -102.83)"/><path d="M145.51,211.57c-.32-.54-1.63.87-1.63.87S146,212.32,145.51,211.57Z" class="cls-15" transform="translate(-37.97 -102.83)"/><path d="M145.7,212.44c-.06-.63-1.85.09-1.85.09S145.78,213.31,145.7,212.44Z" class="cls-15" transform="translate(-37.97 -102.83)"/><path d="M145.5,213.31c.21-.59-1.71-.71-1.71-.71S145.19,214.13,145.5,213.31Z" class="cls-15" transform="translate(-37.97 -102.83)"/><path d="M144.94,214c.45-.45-1.24-1.37-1.24-1.37S144.32,214.62,144.94,214Z" class="cls-15" transform="translate(-37.97 -102.83)"/><path d="M144.14,214.4c.6-.21-.54-1.77-.54-1.77S143.31,214.69,144.14,214.4Z" class="cls-15" transform="translate(-37.97 -102.83)"/><path d="M143.25,214.41c.63.07.27-1.83.27-1.83S142.38,214.32,143.25,214.41Z" class="cls-15" transform="translate(-37.97 -102.83)"/><path d="M142.44,214c.54.33,1-1.53,1-1.53S141.69,213.59,142.44,214Z" class="cls-15" transform="translate(-37.97 -102.83)"/><path d="M141.86,213.36c.35.53,1.59-1,1.59-1S141.38,212.63,141.86,213.36Z" class="cls-15" transform="translate(-37.97 -102.83)"/><path d="M141.63,212.5c.09.63,1.84-.18,1.84-.18S141.51,211.63,141.63,212.5Z" class="cls-15" transform="translate(-37.97 -102.83)"/><rect width="1.18" height="4.35" x="115.46" y="99.98" class="cls-15"/><polygon points="122.78 106.02 109.33 106.02 113.81 103.16 118.3 103.16 122.78 106.02" class="cls-15"/><path d="M155.64,206a1.61,1.61,0,1,1-1.61-1.61A1.61,1.61,0,0,1,155.64,206Z" class="cls-15" transform="translate(-37.97 -102.83)"/><rect width="20.53" height="3.53" x="142.92" y="127.53" class="cls-15"/><rect width="27.01" height="2.24" x="139.68" y="125.49" class="cls-15"/><path d="M201.15,223.21c0,2.36-1.32,4.28-2.94,4.28s-2.93-1.92-2.93-4.28Z" class="cls-15" transform="translate(-37.97 -102.83)"/><path d="M199.56,228.33a1.35,1.35,0,0,0-2.7,0Z" class="cls-15" transform="translate(-37.97 -102.83)"/><path d="M200.56,226.83a1.49,1.49,0,0,1-.47-.07.48.48,0,0,1-.31-.6.47.47,0,0,1,.6-.3,1,1,0,0,0,.91-.31,1.21,1.21,0,0,0,.45-1,.36.36,0,0,0-.18-.2.47.47,0,0,1-.64.19.45.45,0,0,1-.17-.63.91.91,0,0,1,.94-.5,1.23,1.23,0,0,1,1,.92,2.06,2.06,0,0,1-.73,1.89A2,2,0,0,1,200.56,226.83Z" class="cls-15" transform="translate(-37.97 -102.83)"/><polygon points="156.57 124.99 147.73 124.99 148.2 125.59 156.1 125.59 156.57 124.99" class="cls-15"/><polygon points="158.06 124.39 146.25 124.39 147.73 124.99 156.58 124.99 158.06 124.39" class="cls-15"/><path d="M181,228.33h-1.09a4.38,4.38,0,0,1-1.64-3c0-1.4,1.57-1.81,1.57-2.76a1,1,0,0,0-.77-1.07H181Z" class="cls-15" transform="translate(-37.97 -102.83)"/><path d="M181,228.33H182a4.38,4.38,0,0,0,1.64-3c0-1.4-1.57-1.81-1.57-2.76a1,1,0,0,1,.77-1.07H181Z" class="cls-15" transform="translate(-37.97 -102.83)"/><g><path d="M181,221.08h.48c0,.15-.06.31-.1.44a4.73,4.73,0,0,0-.09.57L181,222l-.11,0c0-.15.06-.32.09-.49A4.14,4.14,0,0,1,181,221.08Z" class="cls-15" transform="translate(-37.97 -102.83)"/><path d="M185.52,212.77c0,.06-.1.1-.14.15a6.12,6.12,0,0,0-.41.48,15.46,15.46,0,0,0-2.3,4c0,.08-.06.14-.1.21h-.51a6.56,6.56,0,0,1,.38-.87,15.43,15.43,0,0,1,.68-1.43,12.88,12.88,0,0,1,1.49-2.2,4.18,4.18,0,0,1,.43-.5c0-.06.1-.09.14-.15Z" class="cls-15" transform="translate(-37.97 -102.83)"/></g><g><path d="M180.27,221.52c.06.17.09.32.13.46l-.09,0-.36.12c-.06-.17-.12-.38-.18-.61a2.65,2.65,0,0,0-.09-.44h.49C180.21,221.25,180.25,221.39,180.27,221.52Z" class="cls-15" transform="translate(-37.97 -102.83)"/><path d="M181.66,212.77a.35.35,0,0,0-.08.1s0,0,0,0v0c-.13.12-.23.25-.34.36s0,.06,0,.08-.13.19-.17.29a.78.78,0,0,0-.17.28,0,0,0,0,1,0,0,7.73,7.73,0,0,0-.74,2.17,11.64,11.64,0,0,0-.15,1.46h-.5a9.3,9.3,0,0,1,.16-1.48,1.81,1.81,0,0,0,0-.23,7.87,7.87,0,0,1,.69-2v0a5.33,5.33,0,0,1,.44-.76l.07-.07s0,0,0,0a.87.87,0,0,1,.12-.14,2.86,2.86,0,0,1,.39-.47l.06.06,0,0h0l0,0v0l0,0v0l0,0Z" class="cls-15" transform="translate(-37.97 -102.83)"/></g><g><path d="M180.69,221.52a2.88,2.88,0,0,0,.09.46l-.45.15a.25.25,0,0,1,0-.12,2,2,0,0,1-.12-.49,3.1,3.1,0,0,1,0-.44h.5A3.1,3.1,0,0,0,180.69,221.52Z" class="cls-15" transform="translate(-37.97 -102.83)"/><path d="M183.9,211.82c-.11.13-.25.27-.34.4a0,0,0,0,0,0,0,1.93,1.93,0,0,0-.17.21,2.42,2.42,0,0,0-.27.36l0,0,0,0c-.11.17-.22.36-.32.55a3.37,3.37,0,0,0-.32.59,1.61,1.61,0,0,0-.15.26s0,0,0,.06a15.7,15.7,0,0,0-1.14,3.27h-.52c0-.13.06-.26.1-.38a3.51,3.51,0,0,1,.15-.49,10.44,10.44,0,0,1,.61-1.73,7.49,7.49,0,0,1,.28-.71c.12-.24.25-.47.36-.72a.07.07,0,0,0,0,0s.08-.13.12-.19,0,0,0,0a1,1,0,0,1,.09-.17s0,0,0,0,.13-.23.21-.33a.06.06,0,0,0,0-.05,1,1,0,0,0,.13-.18.59.59,0,0,0,.1-.17s0,0,.05,0l.06-.08.08-.1a1.24,1.24,0,0,1,.19-.22l.28-.35a.29.29,0,0,0,.08-.07Z" class="cls-15" transform="translate(-37.97 -102.83)"/></g><path d="M184.7,215.76a6.85,6.85,0,0,1-1.12,1.82h-1.05a1,1,0,0,1,.14-.21A4.18,4.18,0,0,1,184.7,215.76Z" class="cls-15" transform="translate(-37.97 -102.83)"/><path d="M183.21,213.49a4,4,0,0,1-.89,3.36C181.4,215.73,182.79,214.68,183.21,213.49Z" class="cls-15" transform="translate(-37.97 -102.83)"/><path d="M181.07,214.27c.53.29.59,1.86-.12,2.58C179.92,215.62,180.83,215,181.07,214.27Z" class="cls-15" transform="translate(-37.97 -102.83)"/><path d="M177.65,214.68c.8-.53.53.39.84.88a1.37,1.37,0,0,0,1.09.55C179.88,214.62,178.58,213.43,177.65,214.68Z" class="cls-15" transform="translate(-37.97 -102.83)"/><path d="M180.86,217.58h-1.2c.13-1.1.29-1.4.4-1.46s.11,0,.11,0l.52,1.1Z" class="cls-15" transform="translate(-37.97 -102.83)"/><path d="M186.24,212.6a.89.89,0,1,1-.89-.89A.89.89,0,0,1,186.24,212.6Z" class="cls-15" transform="translate(-37.97 -102.83)"/><path d="M184.63,211.65a.9.9,0,1,1-.89-.89A.89.89,0,0,1,184.63,211.65Z" class="cls-15" transform="translate(-37.97 -102.83)"/><path d="M182.73,212.42a1.07,1.07,0,1,1-1.07-1.07A1.07,1.07,0,0,1,182.73,212.42Z" class="cls-15" transform="translate(-37.97 -102.83)"/><path d="M185.88,213.32c.3,0,.58-.44.74.17.1-1,0-.91-.38-.89.48-.14,0-1-.36-.68.2-.44-.69-.69-.71-.35,0-.34-.64-.26-.71-.08.31,0,.4.25.23.51S185.88,213.32,185.88,213.32Z" class="cls-15" transform="translate(-37.97 -102.83)"/><path d="M183.36,210.84c-.25-.55-.63.07-.87,0,.14.23-.13.86.35.81S183.36,210.84,183.36,210.84Z" class="cls-15" transform="translate(-37.97 -102.83)"/><path d="M184.29,211c.39-.47-.34-.54-.39-.79-.14.23-.82.27-.56.68S184.29,211,184.29,211Z" class="cls-15" transform="translate(-37.97 -102.83)"/><path d="M184.61,211.84c.59.14.32-.54.52-.7-.26,0-.6-.62-.86-.2S184.61,211.84,184.61,211.84Z" class="cls-15" transform="translate(-37.97 -102.83)"/><path d="M184,212.51c.15.6.64.05.86.17-.09-.25.29-.82-.2-.86S184,212.51,184,212.51Z" class="cls-15" transform="translate(-37.97 -102.83)"/><path d="M183.06,212.23c-.47.39.24.59.24.84.18-.19.86-.11.68-.56S183.06,212.23,183.06,212.23Z" class="cls-15" transform="translate(-37.97 -102.83)"/><path d="M182.92,211.3c-.56-.24-.43.48-.65.59.25.08.48.72.81.36S182.92,211.3,182.92,211.3Z" class="cls-15" transform="translate(-37.97 -102.83)"/><path d="M179.63,212.31c0,.63,1.85,0,1.85,0S179.59,211.43,179.63,212.31Z" class="cls-15" transform="translate(-37.97 -102.83)"/><path d="M179.87,211.45c-.24.58,1.68.79,1.68.79S180.21,210.64,179.87,211.45Z" class="cls-15" transform="translate(-37.97 -102.83)"/><path d="M180.46,210.78c-.47.42,1.17,1.43,1.17,1.43S181.11,210.19,180.46,210.78Z" class="cls-15" transform="translate(-37.97 -102.83)"/><path d="M181.28,210.42c-.61.18.45,1.8.45,1.8S182.12,210.17,181.28,210.42Z" class="cls-15" transform="translate(-37.97 -102.83)"/><path d="M182.17,210.45c-.63-.09-.36,1.82-.36,1.82S183,210.59,182.17,210.45Z" class="cls-15" transform="translate(-37.97 -102.83)"/><path d="M183,210.86c-.52-.35-1.1,1.49-1.1,1.49S183.69,211.35,183,210.86Z" class="cls-15" transform="translate(-37.97 -102.83)"/><path d="M183.5,211.57c-.32-.54-1.63.87-1.63.87S184,212.32,183.5,211.57Z" class="cls-15" transform="translate(-37.97 -102.83)"/><path d="M183.69,212.44c-.06-.63-1.85.09-1.85.09S183.77,213.31,183.69,212.44Z" class="cls-15" transform="translate(-37.97 -102.83)"/><path d="M183.49,213.31c.21-.59-1.71-.71-1.71-.71S183.19,214.13,183.49,213.31Z" class="cls-15" transform="translate(-37.97 -102.83)"/><path d="M182.93,214c.45-.45-1.24-1.37-1.24-1.37S182.31,214.62,182.93,214Z" class="cls-15" transform="translate(-37.97 -102.83)"/><path d="M182.13,214.4c.6-.21-.53-1.77-.53-1.77S181.31,214.69,182.13,214.4Z" class="cls-15" transform="translate(-37.97 -102.83)"/><path d="M181.24,214.41c.63.07.27-1.83.27-1.83S180.37,214.32,181.24,214.41Z" class="cls-15" transform="translate(-37.97 -102.83)"/><path d="M180.43,214c.54.33,1-1.53,1-1.53S179.68,213.59,180.43,214Z" class="cls-15" transform="translate(-37.97 -102.83)"/><path d="M179.85,213.36c.35.53,1.59-1,1.59-1S179.37,212.63,179.85,213.36Z" class="cls-15" transform="translate(-37.97 -102.83)"/><path d="M179.62,212.5c.09.63,1.85-.18,1.85-.18S179.5,211.63,179.62,212.5Z" class="cls-15" transform="translate(-37.97 -102.83)"/><rect width="1.18" height="4.35" x="153.46" y="99.98" class="cls-15"/><polygon points="160.77 106.02 147.32 106.02 151.8 103.16 156.29 103.16 160.77 106.02" class="cls-15"/><path d="M193.63,206a1.61,1.61,0,1,1-1.61-1.61A1.61,1.61,0,0,1,193.63,206Z" class="cls-15" transform="translate(-37.97 -102.83)"/></g></g><g><rect width="11.53" height="7.77" x="248.97" y="84.56" class="cls-16"/><rect width="11.53" height="7.77" x="248.97" y="103.03" class="cls-16"/><rect width="11.53" height="7.77" x="243.2" y="93.75" class="cls-16"/><rect width="11.53" height="7.77" x="248.97" y="121.5" class="cls-16"/><rect width="11.53" height="7.77" x="243.2" y="112.22" class="cls-16"/><rect width="11.53" height="7.77" x="175.66" y="84.56" class="cls-16"/><g><rect width="11.53" height="7.77" x="243.2" y="75.28" class="cls-16"/><rect width="11.53" height="7.77" x="227.76" y="93.76" class="cls-16"/><rect width="11.53" height="7.77" x="212.32" y="93.76" class="cls-16"/><rect width="11.53" height="7.77" x="227.76" y="112.24" class="cls-16"/><rect width="11.53" height="7.77" x="212.32" y="112.24" class="cls-16"/><rect width="11.53" height="7.77" x="196.87" y="112.24" class="cls-16"/><rect width="11.53" height="7.77" x="181.43" y="75.28" class="cls-16"/></g><rect width="11.53" height="7.77" x="175.66" y="103.03" class="cls-16"/><rect width="11.53" height="7.77" x="181.43" y="93.75" class="cls-16"/><rect width="11.53" height="7.77" x="175.66" y="121.5" class="cls-16"/><rect width="11.53" height="7.77" x="181.43" y="112.22" class="cls-16"/></g><polygon points="173.68 46.23 55.81 46.23 55.81 76.9 59.21 76.9 59.21 133.96 55.81 133.96 55.81 135.82 263.27 135.82 173.68 46.23" class="cls-17"/><g><path d="M126.41,149.06v35a3,3,0,0,0,3,3h4a3,3,0,0,0,3-3v-35Z" class="cls-6" transform="translate(-37.97 -102.83)"/><path d="M169,149.06v35a3,3,0,0,0,3,3h4a3,3,0,0,0,3-3v-35Z" class="cls-6" transform="translate(-37.97 -102.83)"/><path d="M65.74,180.72v3.38a3,3,0,0,0,3,3h0a3,3,0,0,0,3-3V171.55Z" class="cls-6" transform="translate(-37.97 -102.83)"/><path d="M147.72,149.06v35a3,3,0,0,0,3,3h4a3,3,0,0,0,3-3v-35Z" class="cls-6" transform="translate(-37.97 -102.83)"/><path d="M105.1,149.06v35a3,3,0,0,0,3,3h4a3,3,0,0,0,3-3v-35Z" class="cls-6" transform="translate(-37.97 -102.83)"/><path d="M86.51,149.06l-3.42,5.23V184.1a3,3,0,0,0,3,3h4.67a3,3,0,0,0,3-3v-35Z" class="cls-6" transform="translate(-37.97 -102.83)"/><path d="M190.34,149.06v35a3,3,0,0,0,3,3h4a3,3,0,0,0,3-3v-35Z" class="cls-6" transform="translate(-37.97 -102.83)"/><rect height="38.04" x="173.68" y="46.23" class="cls-6"/><rect width="11.31" x="162.37" y="46.23" class="cls-18"/><path d="M200.34,149.06v35a3,3,0,0,0,3,3h5.3a3,3,0,0,0,3-3v-35Z" class="cls-18" transform="translate(-37.97 -102.83)"/><rect width="11.31" x="141.06" y="46.23" class="cls-18"/><path d="M179,149.06v35a3,3,0,0,0,3,3h5.29a3,3,0,0,0,3-3v-35Z" class="cls-18" transform="translate(-37.97 -102.83)"/><rect width="11.31" x="119.74" y="46.23" class="cls-18"/><path d="M157.72,149.06v35a3,3,0,0,0,3,3H166a3,3,0,0,0,3-3v-35Z" class="cls-18" transform="translate(-37.97 -102.83)"/><rect width="11.31" x="98.43" y="46.23" class="cls-18"/><path d="M136.41,149.06v35a3,3,0,0,0,3,3h5.29a3,3,0,0,0,3-3v-35Z" class="cls-18" transform="translate(-37.97 -102.83)"/><rect width="11.31" x="77.12" y="46.23" class="cls-18"/><path d="M115.1,149.06v35a3,3,0,0,0,3,3h5.29a3,3,0,0,0,3-3v-35Z" class="cls-18" transform="translate(-37.97 -102.83)"/><rect width="11.31" x="55.81" y="46.23" class="cls-18"/><path d="M93.78,149.06v35a3,3,0,0,0,3,3h5.3a3,3,0,0,0,3-3v-35Z" class="cls-18" transform="translate(-37.97 -102.83)"/><path d="M71.76,171.55V184.1a3,3,0,0,0,3,3h5.31a3,3,0,0,0,3-3V154.29Z" class="cls-18" transform="translate(-37.97 -102.83)"/></g><g><path d="M126.41,180.48v3.62a3,3,0,0,0,3,3h4a3,3,0,0,0,3-3v-3.62Z" class="cls-13" transform="translate(-37.97 -102.83)"/><path d="M169,180.48v3.62a3,3,0,0,0,3,3h4a3,3,0,0,0,3-3v-3.62Z" class="cls-13" transform="translate(-37.97 -102.83)"/><path d="M65.9,180.48l-.16.24v3.38a3,3,0,1,0,6,0v-3.62Z" class="cls-13" transform="translate(-37.97 -102.83)"/><path d="M147.72,180.48v3.62a3,3,0,0,0,3,3h4a3,3,0,0,0,3-3v-3.62Z" class="cls-13" transform="translate(-37.97 -102.83)"/><path d="M105.1,180.48v3.62a3,3,0,0,0,3,3h4a3,3,0,0,0,3-3v-3.62Z" class="cls-13" transform="translate(-37.97 -102.83)"/><path d="M83.09,180.48v3.62a3,3,0,0,0,3,3h4.67a3,3,0,0,0,3-3v-3.62Z" class="cls-13" transform="translate(-37.97 -102.83)"/><path d="M190.34,180.48v3.62a3,3,0,0,0,3,3h4a3,3,0,0,0,3-3v-3.62Z" class="cls-13" transform="translate(-37.97 -102.83)"/><path d="M200.34,180.48v3.62a3,3,0,0,0,3,3h5.3a3,3,0,0,0,3-3v-3.62Z" class="cls-19" transform="translate(-37.97 -102.83)"/><path d="M179,180.48v3.62a3,3,0,0,0,3,3h5.29a3,3,0,0,0,3-3v-3.62Z" class="cls-19" transform="translate(-37.97 -102.83)"/><path d="M157.72,180.48v3.62a3,3,0,0,0,3,3H166a3,3,0,0,0,3-3v-3.62Z" class="cls-19" transform="translate(-37.97 -102.83)"/><path d="M136.41,180.48v3.62a3,3,0,0,0,3,3h5.29a3,3,0,0,0,3-3v-3.62Z" class="cls-19" transform="translate(-37.97 -102.83)"/><path d="M115.1,180.48v3.62a3,3,0,0,0,3,3h5.29a3,3,0,0,0,3-3v-3.62Z" class="cls-19" transform="translate(-37.97 -102.83)"/><path d="M93.78,180.48v3.62a3,3,0,0,0,3,3h5.3a3,3,0,0,0,3-3v-3.62Z" class="cls-19" transform="translate(-37.97 -102.83)"/><path d="M71.76,180.48v3.62a3,3,0,0,0,3,3h5.31a3,3,0,0,0,3-3v-3.62Z" class="cls-19" transform="translate(-37.97 -102.83)"/></g><g><rect width="11.53" height="7.77" x="329.61" y="65.99" class="cls-20"/><rect width="11.53" height="7.77" x="329.61" y="84.56" class="cls-20"/><rect width="11.53" height="7.77" x="323.84" y="75.28" class="cls-20"/><rect width="11.53" height="7.77" x="329.61" y="103.03" class="cls-20"/><rect width="11.53" height="7.77" x="323.84" y="93.75" class="cls-20"/><rect width="11.53" height="7.77" x="329.61" y="121.5" class="cls-20"/><rect width="11.53" height="7.77" x="323.84" y="112.22" class="cls-20"/></g><g><rect width="49.32" height="86.88" x="268.95" y="77.65" class="cls-6"/><rect width="17.73" height="32.14" x="274.35" y="83.04" class="cls-14"/><rect width="17.73" height="32.14" x="295.12" y="83.04" class="cls-14"/><rect width="17.73" height="32.14" x="274.35" y="118.21" class="cls-14"/><rect width="17.73" height="32.14" x="295.12" y="118.21" class="cls-14"/><path d="M333.28,218h17.55V200.48Z" class="cls-15" transform="translate(-37.97 -102.83)"/><path d="M330.06,244.91V221.24L312.33,239v14.21h9.45Z" class="cls-15" transform="translate(-37.97 -102.83)"/><polygon points="312.86 121.3 312.86 118.21 295.13 118.21 295.13 139.03 312.86 121.3" class="cls-15"/><path d="M311.9,229.62a2.24,2.24,0,1,1-2.23-2.23A2.24,2.24,0,0,1,311.9,229.62Z" class="cls-11" transform="translate(-37.97 -102.83)"/><rect width="7.96" height="2.23" x="271.69" y="124.55" class="cls-11"/><g><rect width="17.73" height="10.92" x="274.35" y="83.05" class="cls-21"/><rect width="17.73" height="10.92" x="295.12" y="83.05" class="cls-21"/><rect width="17.73" height="3.28" x="274.35" y="95.66" class="cls-21"/><rect width="17.73" height="3.28" x="295.12" y="95.66" class="cls-21"/><rect width="17.73" height="3.28" x="274.35" y="100.63" class="cls-21"/><rect width="17.73" height="3.28" x="295.12" y="100.63" class="cls-21"/><rect width="17.73" height="3.29" x="274.35" y="105.6" class="cls-21"/><rect width="17.73" height="3.29" x="295.12" y="105.6" class="cls-21"/><rect width="17.73" height="3.29" x="274.35" y="110.58" class="cls-21"/><rect width="17.73" height="3.29" x="295.12" y="110.58" class="cls-21"/><rect width="17.73" height=".63" x="274.35" y="118.21" class="cls-21"/><rect width="17.73" height=".63" x="295.12" y="118.21" class="cls-21"/><rect width="17.73" height="14.33" x="274.35" y="136.02" class="cls-21"/><rect width="17.73" height="14.33" x="295.12" y="136.02" class="cls-21"/></g></g><rect width="15.93" height="3" x="68.13" y="20.23" class="cls-22"/><rect width="15.93" height="3" x="186.03" y="123.07" class="cls-22" transform="translate(350.01 146.3) rotate(180)"/><rect width="15.93" height="3" x="108.09" y="20.23" class="cls-22"/><g><path d="M73.83,209.6l-2.54-5.11a5.54,5.54,0,0,0,.53-.3L74.89,209A11.08,11.08,0,0,1,73.83,209.6Zm-10.54-.1c-.35-.19-.7-.4-1-.62l3.15-4.75c.17.11.35.21.54.31Zm15-3.86-4.75-3.17a5.74,5.74,0,0,0,.32-.53l5,2.65C78.76,205,78.55,205.3,78.33,205.64Zm-19.46-.19a10,10,0,0,1-.6-1.06l5.1-2.55c.1.18.2.36.31.53ZM80.25,200l-5.69-.37c0-.21,0-.41,0-.62l4.53-.26,1.17,0A10.68,10.68,0,0,1,80.25,200Zm-23.19-.24v-.06a8.67,8.67,0,0,1,0-1.14l5.69.34a5.61,5.61,0,0,0,0,.58Zm16.88-3.19c-.1-.18-.2-.36-.31-.54l4.79-3.09a9.69,9.69,0,0,1,.6,1Zm-10.53,0-5.07-2.62a11.12,11.12,0,0,1,.62-1.05L63.72,196C63.61,196.12,63.51,196.3,63.41,196.48Zm8.48-2.24c-.17-.11-.35-.21-.53-.31L74,188.86c.36.19.71.39,1,.61Zm-6.42,0-3.09-4.8a10.93,10.93,0,0,1,1-.6L66,193.91C65.82,194,65.64,194.11,65.47,194.22Z" class="cls-9" transform="translate(-37.97 -102.83)"/><g><path d="M69.14,188.08c0,.54-.21,1-.48,1s-.48-.43-.48-1,.22-1,.48-1S69.14,187.54,69.14,188.08Z" class="cls-3" transform="translate(-37.97 -102.83)"/><path d="M69.14,190c0,.53-.21,1-.48,1s-.48-.44-.48-1,.22-1,.48-1S69.14,189.48,69.14,190Z" class="cls-3" transform="translate(-37.97 -102.83)"/><path d="M69.14,192c0,.53-.21,1-.48,1s-.48-.44-.48-1,.22-1,.48-1S69.14,191.42,69.14,192Z" class="cls-3" transform="translate(-37.97 -102.83)"/><path d="M69.44,205.74c0,.43-.78,1.31-.78,1.68,0-.37-.78-1.25-.78-1.68a.78.78,0,0,1,1.56,0Z" class="cls-3" transform="translate(-37.97 -102.83)"/><polygon points="35.55 93.32 25.83 93.32 28.57 90.25 32.8 90.25 35.55 93.32" class="cls-3"/><polygon points="27.97 92.36 29 91.2 32.37 91.2 33.41 92.36 27.97 92.36" class="cls-20"/><polygon points="27.97 92.36 29 91.2 30.95 91.2 31.47 92.36 27.97 92.36" class="cls-9"/><polygon points="35.55 93.32 25.83 93.32 28.57 102.13 32.8 102.13 35.55 93.32" class="cls-3"/><polygon points="29.28 101.17 27.13 94.28 34.25 94.28 32.1 101.17 29.28 101.17" class="cls-20"/><polygon points="29.28 101.17 27.13 94.28 31.47 94.28 30.84 101.17 29.28 101.17" class="cls-9"/><rect width="2.45" height="1.04" x="29.46" y="89.21" class="cls-3"/></g></g><g><path d="M135.51,209.6,133,204.49a5.54,5.54,0,0,0,.53-.3l3.07,4.81A11.08,11.08,0,0,1,135.51,209.6ZM125,209.5a11.89,11.89,0,0,1-1-.62l3.15-4.75c.17.11.35.21.53.31Zm15-3.86-4.75-3.17a5.74,5.74,0,0,0,.32-.53l5,2.65C140.44,205,140.23,205.3,140,205.64Zm-19.46-.19a10,10,0,0,1-.6-1.06l5.1-2.55a5.64,5.64,0,0,0,.31.53Zm21.38-5.5-5.69-.37c0-.21,0-.41,0-.62l4.53-.26,1.16,0A10.8,10.8,0,0,1,141.93,200Zm-23.19-.24v-.06c0-.38,0-.76,0-1.14l5.7.34a5.61,5.61,0,0,0,0,.58Zm16.88-3.19c-.1-.18-.2-.36-.31-.54l4.79-3.09a11.73,11.73,0,0,1,.6,1Zm-10.53,0L120,193.86c.19-.36.39-.71.61-1.05L125.4,196C125.29,196.12,125.19,196.3,125.09,196.48Zm8.48-2.24c-.17-.11-.35-.21-.53-.31l2.61-5.07c.36.19.71.39,1,.61Zm-6.42,0-3.09-4.8a10.93,10.93,0,0,1,1-.6l2.57,5.09C127.5,194,127.32,194.11,127.15,194.22Z" class="cls-9" transform="translate(-37.97 -102.83)"/><g><path d="M130.82,188.08c0,.54-.21,1-.48,1s-.48-.43-.48-1,.22-1,.48-1S130.82,187.54,130.82,188.08Z" class="cls-3" transform="translate(-37.97 -102.83)"/><path d="M130.82,190c0,.53-.21,1-.48,1s-.48-.44-.48-1,.22-1,.48-1S130.82,189.48,130.82,190Z" class="cls-3" transform="translate(-37.97 -102.83)"/><path d="M130.82,192c0,.53-.21,1-.48,1s-.48-.44-.48-1,.22-1,.48-1S130.82,191.42,130.82,192Z" class="cls-3" transform="translate(-37.97 -102.83)"/><path d="M131.12,205.74c0,.43-.78,1.31-.78,1.68,0-.37-.78-1.25-.78-1.68a.78.78,0,0,1,1.56,0Z" class="cls-3" transform="translate(-37.97 -102.83)"/><polygon points="97.22 93.32 87.51 93.32 90.25 90.25 94.48 90.25 97.22 93.32" class="cls-3"/><polygon points="89.64 92.36 90.68 91.2 94.05 91.2 95.09 92.36 89.64 92.36" class="cls-20"/><polygon points="89.64 92.36 90.68 91.2 92.63 91.2 93.15 92.36 89.64 92.36" class="cls-9"/><polygon points="97.22 93.32 87.51 93.32 90.25 102.13 94.48 102.13 97.22 93.32" class="cls-3"/><polygon points="90.96 101.17 88.81 94.28 95.92 94.28 93.78 101.17 90.96 101.17" class="cls-20"/><polygon points="90.96 101.17 88.81 94.28 93.15 94.28 92.52 101.17 90.96 101.17" class="cls-9"/><rect width="2.45" height="1.04" x="91.14" y="89.21" class="cls-3"/></g></g><g><path d="M197.18,209.6l-2.53-5.11a5.54,5.54,0,0,0,.53-.3l3.07,4.81A11.24,11.24,0,0,1,197.18,209.6Zm-10.53-.1a11.89,11.89,0,0,1-1-.62l3.15-4.75c.17.11.35.21.53.31Zm15-3.86-4.75-3.17c.11-.17.22-.35.32-.53l5.05,2.65C202.12,205,201.91,205.3,201.69,205.64Zm-19.46-.19a10,10,0,0,1-.6-1.06l5.1-2.55a5.54,5.54,0,0,0,.3.53Zm21.38-5.5-5.69-.37c0-.21,0-.41,0-.62l4.53-.26,1.16,0A10.8,10.8,0,0,1,203.61,200Zm-23.19-.24v-.06c0-.38,0-.76,0-1.14l5.7.34c0,.19,0,.38,0,.58Zm16.87-3.19A5,5,0,0,0,197,196l4.79-3.09a9.76,9.76,0,0,1,.61,1Zm-10.52,0-5.07-2.62c.19-.36.39-.71.61-1.05l4.77,3.14A5.64,5.64,0,0,0,186.77,196.48Zm8.48-2.24c-.17-.11-.35-.21-.53-.31l2.61-5.07c.36.19.71.39,1,.61Zm-6.42,0-3.09-4.8a10.93,10.93,0,0,1,1-.6l2.57,5.09C189.18,194,189,194.11,188.83,194.22Z" class="cls-9" transform="translate(-37.97 -102.83)"/><g><path d="M192.5,188.08c0,.54-.21,1-.48,1s-.48-.43-.48-1,.22-1,.48-1S192.5,187.54,192.5,188.08Z" class="cls-3" transform="translate(-37.97 -102.83)"/><path d="M192.5,190c0,.53-.21,1-.48,1s-.48-.44-.48-1,.22-1,.48-1S192.5,189.48,192.5,190Z" class="cls-3" transform="translate(-37.97 -102.83)"/><path d="M192.5,192c0,.53-.21,1-.48,1s-.48-.44-.48-1,.22-1,.48-1S192.5,191.42,192.5,192Z" class="cls-3" transform="translate(-37.97 -102.83)"/><path d="M192.8,205.74c0,.43-.78,1.31-.78,1.68,0-.37-.78-1.25-.78-1.68a.78.78,0,0,1,1.56,0Z" class="cls-3" transform="translate(-37.97 -102.83)"/><polygon points="158.9 93.32 149.19 93.32 151.93 90.25 156.16 90.25 158.9 93.32" class="cls-3"/><polygon points="151.32 92.36 152.36 91.2 155.73 91.2 156.77 92.36 151.32 92.36" class="cls-20"/><polygon points="151.32 92.36 152.36 91.2 154.31 91.2 154.82 92.36 151.32 92.36" class="cls-9"/><polygon points="158.9 93.32 149.19 93.32 151.93 102.13 156.16 102.13 158.9 93.32" class="cls-3"/><polygon points="152.63 101.17 150.49 94.28 157.6 94.28 155.46 101.17 152.63 101.17" class="cls-20"/><polygon points="152.63 101.17 150.49 94.28 154.82 94.28 154.2 101.17 152.63 101.17" class="cls-9"/><rect width="2.45" height="1.04" x="152.82" y="89.21" class="cls-3"/></g></g></g><g><g><g><rect width="2.6" height="25.49" x="179.47" y="139.03" class="cls-23"/><rect width="2.6" height="25.49" x="194.27" y="139.03" class="cls-23"/><rect width="2.6" height="2.64" x="179.47" y="139.03" class="cls-13"/><rect width="2.6" height="2.64" x="194.27" y="139.03" class="cls-13"/><rect width="2.6" height="6.29" x="179.47" y="152.19" class="cls-13"/><rect width="2.6" height="6.29" x="194.27" y="152.19" class="cls-13"/><rect width="25.34" height="13.13" x="175.66" y="125.9" class="cls-18" rx="2"/><path d="M177.66,147.39H199a2,2,0,0,1,2,2v2.8a0,0,0,0,1,0,0H175.66a0,0,0,0,1,0,0v-2.8A2,2,0,0,1,177.66,147.39Z" class="cls-18"/></g><g><rect width="2.6" height="25.49" x="240.1" y="139.03" class="cls-23"/><rect width="2.6" height="25.49" x="254.91" y="139.03" class="cls-23"/><rect width="2.6" height="2.64" x="240.1" y="139.03" class="cls-13"/><rect width="2.6" height="2.64" x="254.91" y="139.03" class="cls-13"/><rect width="2.6" height="6.29" x="240.1" y="152.19" class="cls-13"/><rect width="2.6" height="6.29" x="254.91" y="152.19" class="cls-13"/><rect width="25.34" height="13.13" x="236.3" y="125.9" class="cls-18" rx="2"/><path d="M238.3,147.39h21.34a2,2,0,0,1,2,2v2.8a0,0,0,0,1,0,0H236.3a0,0,0,0,1,0,0v-2.8A2,2,0,0,1,238.3,147.39Z" class="cls-18"/></g></g><g><rect width="30.72" height="2.26" x="203.29" y="136.23" class="cls-23"/><rect width="4.3" height="9.23" x="216.5" y="142.96" class="cls-23"/><path d="M217.24,155.34h2.83a0,0,0,0,1,0,0v8.49a.74.74,0,0,1-.74.74H218a.74.74,0,0,1-.74-.74v-8.49a0,0,0,0,1,0,0Z" class="cls-23"/><path d="M261.08,241.87a4.46,4.46,0,1,1-4.46-4.46A4.46,4.46,0,0,1,261.08,241.87Z" class="cls-23" transform="translate(-37.97 -102.83)"/><path d="M260.37,256.37a3.75,3.75,0,1,1-3.75-3.74A3.74,3.74,0,0,1,260.37,256.37Z" class="cls-23" transform="translate(-37.97 -102.83)"/><rect width="53.2" height="2.26" x="192.05" y="134.02" class="cls-6"/><path d="M238.82,267.22a1,1,0,0,1,0-1.9c.12,0,12.47-.46,14.52-6.75v-2.65a.95.95,0,1,1,1.9,0l0,3.07c-2.32,7.73-15.75,8.21-16.32,8.23Z" class="cls-23" transform="translate(-37.97 -102.83)"/><path d="M274.43,267.22a1,1,0,0,0,0-1.9c-.12,0-12.47-.46-14.52-6.75v-2.65a.95.95,0,0,0-1.9,0l0,3.07c2.32,7.73,15.75,8.21,16.32,8.23Z" class="cls-23" transform="translate(-37.97 -102.83)"/><path d="M257.88,266.11a1.26,1.26,0,1,1-1.26-1.25A1.25,1.25,0,0,1,257.88,266.11Z" class="cls-6" transform="translate(-37.97 -102.83)"/><path d="M256.84,255.59a1.63,1.63,0,1,1-1.63-1.63A1.63,1.63,0,0,1,256.84,255.59Z" class="cls-6" transform="translate(-37.97 -102.83)"/></g></g></g><text class="cls-24" transform="translate(174.52 58.68)">Food <tspan class="cls-25"><tspan x="0" y="23.78"> </tspan><tspan x="37.16" y="23.78" class="cls-26">Mate</tspan></tspan></text><text class="cls-27" transform="translate(172.45 61.28)">Food <tspan class="cls-25"><tspan x="0" y="23.78"> </tspan><tspan x="37.16" y="23.78" class="cls-26">Mate</tspan></tspan></text></g></g></svg>